<?xml version="1.0" standalone="no"?>
<!DOCTYPE svg PUBLIC "-//W3C//DTD SVG 20010904//EN"
 "http://www.w3.org/TR/2001/REC-SVG-20010904/DTD/svg10.dtd">
<svg version="1.0" xmlns="http://www.w3.org/2000/svg"
 width="376.000000pt" height="376.000000pt" viewBox="0 0 376.000000 376.000000"
 preserveAspectRatio="xMidYMid meet">
<metadata>
Created by potrace 1.14, written by Peter Selinger 2001-2017
</metadata>
<g transform="translate(0.000000,376.000000) scale(0.100000,-0.100000)"
fill="#000000" stroke="none">
<path d="M1826 3699 c-19 -16 -53 -59 -75 -94 -38 -59 -191 -357 -191 -370 0
-3 -28 -63 -62 -133 -73 -151 -151 -289 -222 -392 -70 -102 -234 -264 -336
-332 -75 -50 -320 -182 -320 -173 0 2 -27 -10 -60 -26 -33 -16 -64 -29 -70
-29 -5 0 -25 -9 -44 -21 -20 -12 -36 -17 -36 -12 0 4 -4 4 -8 -2 -4 -5 -25
-19 -46 -30 -133 -67 -116 -125 77 -263 29 -20 54 -40 55 -44 2 -5 8 -8 13 -8
12 0 125 -74 156 -103 13 -11 23 -16 23 -11 0 5 4 4 8 -1 4 -6 46 -41 94 -77
150 -115 292 -252 375 -363 30 -39 90 -123 100 -140 84 -134 136 -230 199
-362 238 -496 295 -598 363 -656 48 -40 77 -36 130 22 62 65 89 115 328 610
54 110 177 330 191 341 4 3 19 24 34 47 50 77 207 230 296 290 48 32 89 61 90
66 2 4 9 7 16 7 6 0 23 8 36 17 14 10 32 19 40 20 8 1 16 7 18 12 2 6 8 11 13
11 5 0 36 13 68 29 33 16 62 26 65 23 4 -3 6 0 6 6 0 7 3 11 8 10 15 -3 265
112 270 124 2 5 8 8 14 8 17 0 48 41 48 62 0 30 -19 60 -64 101 -51 46 -197
149 -253 178 -13 7 -23 16 -23 21 0 4 -5 8 -11 8 -10 0 -69 41 -97 68 -7 6
-17 12 -21 12 -5 0 -19 10 -33 23 -14 12 -44 37 -67 56 -138 112 -262 239
-351 361 -21 30 -44 60 -50 67 -5 7 -15 24 -22 38 -6 14 -15 25 -20 25 -4 0
-8 4 -8 9 0 5 -20 43 -44 84 -43 72 -168 325 -256 517 -24 52 -51 103 -59 113
-8 9 -11 17 -7 17 4 0 -1 12 -11 28 -10 15 -25 41 -33 57 -8 17 -23 39 -32 49
-10 11 -18 25 -18 30 -1 14 -37 54 -74 84 -39 30 -69 28 -110 -9z"/>
</g>
</svg>
