<svg width="80" height="89" viewBox="0 0 80 89" fill="none" xmlns="http://www.w3.org/2000/svg">
<g filter="url(#filter0_b_18_303)">
<path d="M0 48.3954C0 26.3618 17.9664 8.5 40 8.5C62.0336 8.5 80 26.3618 80 48.3954C80 70.429 62.0336 88.2908 40 88.2908C17.9664 88.2908 0 70.429 0 48.3954Z" fill="url(#paint0_radial_18_303)"/>
<path d="M0.5 48.3954C0.5 26.6396 18.2408 9 40 9C61.7592 9 79.5 26.6396 79.5 48.3954C79.5 70.1512 61.7592 87.7908 40 87.7908C18.2408 87.7908 0.5 70.1512 0.5 48.3954Z" stroke="url(#paint1_radial_18_303)"/>
<path d="M0.5 48.3954C0.5 26.6396 18.2408 9 40 9C61.7592 9 79.5 26.6396 79.5 48.3954C79.5 70.1512 61.7592 87.7908 40 87.7908C18.2408 87.7908 0.5 70.1512 0.5 48.3954Z" stroke="url(#paint2_radial_18_303)"/>
<path d="M0.5 48.3954C0.5 26.6396 18.2408 9 40 9C61.7592 9 79.5 26.6396 79.5 48.3954C79.5 70.1512 61.7592 87.7908 40 87.7908C18.2408 87.7908 0.5 70.1512 0.5 48.3954Z" stroke="url(#paint3_radial_18_303)"/>
</g>
<g filter="url(#filter1_f_18_303)">
<ellipse cx="39.7435" cy="29.9822" rx="25.3846" ry="16.3673" fill="url(#paint4_radial_18_303)" fill-opacity="0.2"/>
</g>
<path fill-rule="evenodd" clip-rule="evenodd" d="M46.2222 31.9073C48.931 31.9073 51.2374 33.6392 52.0919 36.0555H33.7778C31.0274 36.0555 28.3897 37.1481 26.4448 39.0929C24.5 41.0377 23.4074 43.6755 23.4074 46.4259V56.4436C22.1939 56.0143 21.1434 55.2193 20.4005 54.1681C19.6576 53.1169 19.2589 51.8612 19.2593 50.574V38.1296C19.2593 36.4793 19.9148 34.8967 21.0817 33.7298C22.2486 32.5629 23.8313 31.9073 25.4815 31.9073H46.2222ZM54.5185 40.2036H33.7778C32.1276 40.2036 30.5449 40.8592 29.378 42.0261C28.2111 43.193 27.5556 44.7756 27.5556 46.4259V58.8703C27.5556 60.5205 28.2111 62.1032 29.378 63.2701C30.5449 64.437 32.1276 65.0925 33.7778 65.0925H54.5185C56.1688 65.0925 57.7514 64.437 58.9183 63.2701C60.0852 62.1032 60.7408 60.5205 60.7408 58.8703V46.4259C60.7408 44.7756 60.0852 43.193 58.9183 42.0261C57.7514 40.8592 56.1688 40.2036 54.5185 40.2036ZM48.2963 52.6481C48.2963 53.7482 47.8593 54.8033 47.0813 55.5813C46.3034 56.3592 45.2483 56.7962 44.1482 56.7962C43.048 56.7962 41.9929 56.3592 41.215 55.5813C40.4371 54.8033 40 53.7482 40 52.6481C40 51.5479 40.4371 50.4928 41.215 49.7149C41.9929 48.937 43.048 48.4999 44.1482 48.4999C45.2483 48.4999 46.3034 48.937 47.0813 49.7149C47.8593 50.4928 48.2963 51.5479 48.2963 52.6481Z" fill="url(#paint5_linear_18_303)"/>
<defs>
<filter id="filter0_b_18_303" x="-5" y="3.5" width="90" height="89.7908" filterUnits="userSpaceOnUse" color-interpolation-filters="sRGB">
<feFlood flood-opacity="0" result="BackgroundImageFix"/>
<feGaussianBlur in="BackgroundImageFix" stdDeviation="2.5"/>
<feComposite in2="SourceAlpha" operator="in" result="effect1_backgroundBlur_18_303"/>
<feBlend mode="normal" in="SourceGraphic" in2="effect1_backgroundBlur_18_303" result="shape"/>
</filter>
<filter id="filter1_f_18_303" x="1.40435" y="0.660334" width="76.6784" height="58.6438" filterUnits="userSpaceOnUse" color-interpolation-filters="sRGB">
<feFlood flood-opacity="0" result="BackgroundImageFix"/>
<feBlend mode="normal" in="SourceGraphic" in2="BackgroundImageFix" result="shape"/>
<feGaussianBlur stdDeviation="6.47727" result="effect1_foregroundBlur_18_303"/>
</filter>
<radialGradient id="paint0_radial_18_303" cx="0" cy="0" r="1" gradientUnits="userSpaceOnUse" gradientTransform="translate(6.69204 8.5) rotate(47.9449) scale(119.431 86.7751)">
<stop stop-color="white" stop-opacity="0.36"/>
<stop offset="1" stop-color="white" stop-opacity="0"/>
</radialGradient>
<radialGradient id="paint1_radial_18_303" cx="0" cy="0" r="1" gradientUnits="userSpaceOnUse" gradientTransform="translate(-42.5965 16.6628) rotate(35.0407) scale(92.1512 54.3882)">
<stop stop-color="white"/>
<stop offset="1" stop-color="white" stop-opacity="0.06"/>
</radialGradient>
<radialGradient id="paint2_radial_18_303" cx="0" cy="0" r="1" gradientUnits="userSpaceOnUse" gradientTransform="translate(103.421 61.9008) rotate(161.385) scale(66.8428 45.1784)">
<stop stop-color="#8470FF"/>
<stop offset="1" stop-color="#865CFF" stop-opacity="0"/>
</radialGradient>
<radialGradient id="paint3_radial_18_303" cx="0" cy="0" r="1" gradientUnits="userSpaceOnUse" gradientTransform="translate(40.871 -9.73593) rotate(47.2149) scale(44.643 32.0879)">
<stop/>
<stop offset="1" stop-color="white" stop-opacity="0"/>
</radialGradient>
<radialGradient id="paint4_radial_18_303" cx="0" cy="0" r="1" gradientUnits="userSpaceOnUse" gradientTransform="translate(39.7435 13.6149) rotate(90) scale(24.2566 37.625)">
<stop stop-color="white"/>
<stop offset="1" stop-color="white" stop-opacity="0"/>
</radialGradient>
<linearGradient id="paint5_linear_18_303" x1="26.821" y1="81.3394" x2="73.1833" y2="36.2122" gradientUnits="userSpaceOnUse">
<stop stop-color="#982DEC"/>
<stop offset="0.572917" stop-color="#DC8DF8"/>
<stop offset="0.895833" stop-color="#A9C4F3"/>
</linearGradient>
</defs>
</svg>
